<mxfile host="app.diagrams.net" modified="2022-05-22T12:49:22.044Z" agent="5.0 (Windows NT 10.0; Win64; x64) AppleWebKit/537.36 (KHTML, like Gecko) Chrome/101.0.4951.67 Safari/537.36" etag="rvQ3M1Xgfdv3S5xnuCb2" version="18.1.1" type="github">
  <diagram id="G4gfBUooZ_62HYgKlobD" name="Page-1">
    <mxGraphModel dx="942" dy="618" grid="1" gridSize="10" guides="1" tooltips="1" connect="1" arrows="1" fold="1" page="1" pageScale="1" pageWidth="827" pageHeight="1169" math="0" shadow="0">
      <root>
        <mxCell id="0" />
        <mxCell id="1" parent="0" />
      </root>
    </mxGraphModel>
  </diagram>
</mxfile>
